<?xml version="1.0" encoding="UTF-8"?>
<svg id="Capa_1" xmlns="http://www.w3.org/2000/svg" version="1.1" viewBox="0 0 425.2 425.2">
  <!-- Generator: Adobe Illustrator 29.4.0, SVG Export Plug-In . SVG Version: 2.1.0 Build 152)  -->
  <defs>
    <style>
      .st0 {
        fill: #ec6669;
      }

      .st1 {
        fill: #fff;
      }
    </style>
  </defs>
  <path class="st0" d="M330.66,126.27H92.61c-43.85,0-79.4,35.55-79.4,79.4h0c0,23,9.79,43.7,25.41,58.2l-6.87,33.98,38-16.14c7.24,2.17,14.91,3.35,22.86,3.35h238.05c43.85,0,79.4-35.55,79.4-79.4h0c0-43.85-35.55-79.4-79.4-79.4Z"/>
  <g>
    <g>
      <path class="st1" d="M140.89,174.18h21.6c13.84,0,25,4.95,25,20.23s-11.29,21.32-24.61,21.32h-7.77v21.33h-14.22v-62.88ZM162.04,204.43c7.82,0,11.52-3.48,11.52-10.03s-4.21-8.94-11.9-8.94h-6.55v18.97h6.93Z"/>
      <path class="st1" d="M200.25,205.34c0-20.54,11.6-32.32,28.56-32.32s28.56,11.86,28.56,32.32-11.6,32.87-28.56,32.87-28.56-12.33-28.56-32.87ZM242.8,205.34c0-12.61-5.41-20.05-13.99-20.05s-13.99,7.44-13.99,20.05,5.41,20.6,13.99,20.6,13.99-7.99,13.99-20.6Z"/>
      <path class="st1" d="M283.65,186.1h-17.31v-11.92h48.83v11.92h-17.31v50.95h-14.21v-50.95Z"/>
      <path class="st1" d="M329.82,174.18h14.22v62.88h-14.22v-62.88Z"/>
    </g>
    <path class="st1" d="M126.54,218.71c0-8.88-4.83-13.99-12.56-17.09l-8.07-3.24c-5.53-2.18-9.67-3.58-9.67-7.44,0-3.59,3.14-5.63,8.08-5.63s8.97,1.75,13.14,4.92l7.23-8.95c-4.3-4.25-9.96-6.91-15.73-7.85,0-.13.02-.26.02-.39,0-3.36-2.73-6.09-6.09-6.09s-6.09,2.73-6.09,6.09c0,.33.03.65.08.96-9.13,2.47-15.11,9.44-15.11,17.76,0,9.13,6.22,14.48,12.78,17.12l8.23,3.48c5.53,2.26,9.13,3.53,9.13,7.48,0,3.73-2.92,6.06-8.9,6.06-5.21,0-11.05-2.68-15.55-6.56l-8.22,9.74c4.94,4.58,11.22,7.47,17.59,8.57-.01.17-.03.34-.03.51,0,3.36,2.73,6.09,6.09,6.09s6.09-2.73,6.09-6.09c0-.19-.01-.38-.03-.57,11.22-2.13,17.59-10.01,17.59-18.9Z"/>
  </g>
</svg>